<mxfile host="app.diagrams.net" modified="2022-04-06T02:55:21.091Z" agent="5.0 (X11; Linux x86_64) AppleWebKit/537.36 (KHTML, like Gecko) Chrome/98.0.4758.80 Safari/537.36" etag="yQ0J3Nbln8YNb_epklKD" version="17.4.0" type="github">
  <diagram id="Ed5bfWAW9vQ3U0ykQsrp" name="Page-1">
    <mxGraphModel dx="1303" dy="513" grid="1" gridSize="10" guides="1" tooltips="1" connect="1" arrows="1" fold="1" page="1" pageScale="1" pageWidth="1169" pageHeight="827" math="0" shadow="1">
      <root>
        <mxCell id="0" />
        <mxCell id="1" parent="0" />
        <mxCell id="Hqv3DFoAGl3mghlpKtBY-1" value="Pelanggan" style="rounded=0;whiteSpace=wrap;html=1;" parent="1" vertex="1">
          <mxGeometry x="180" y="140" width="120" height="60" as="geometry" />
        </mxCell>
        <mxCell id="Hqv3DFoAGl3mghlpKtBY-7" value="" style="endArrow=none;html=1;rounded=0;" parent="1" source="Hqv3DFoAGl3mghlpKtBY-8" target="Hqv3DFoAGl3mghlpKtBY-1" edge="1">
          <mxGeometry width="50" height="50" relative="1" as="geometry">
            <mxPoint x="240" y="190" as="sourcePoint" />
            <mxPoint x="620" y="260" as="targetPoint" />
          </mxGeometry>
        </mxCell>
        <mxCell id="Hqv3DFoAGl3mghlpKtBY-8" value="id_pelanggan" style="ellipse;whiteSpace=wrap;html=1;" parent="1" vertex="1">
          <mxGeometry x="20" y="20" width="120" height="80" as="geometry" />
        </mxCell>
        <mxCell id="Hqv3DFoAGl3mghlpKtBY-9" value="nama_pelanggan" style="ellipse;whiteSpace=wrap;html=1;" parent="1" vertex="1">
          <mxGeometry x="20" y="130" width="120" height="80" as="geometry" />
        </mxCell>
        <mxCell id="Hqv3DFoAGl3mghlpKtBY-10" value="" style="endArrow=none;html=1;rounded=0;" parent="1" source="Hqv3DFoAGl3mghlpKtBY-9" target="Hqv3DFoAGl3mghlpKtBY-1" edge="1">
          <mxGeometry width="50" height="50" relative="1" as="geometry">
            <mxPoint x="570" y="310" as="sourcePoint" />
            <mxPoint x="240" y="130" as="targetPoint" />
          </mxGeometry>
        </mxCell>
        <mxCell id="Hqv3DFoAGl3mghlpKtBY-11" value="alamat" style="ellipse;whiteSpace=wrap;html=1;" parent="1" vertex="1">
          <mxGeometry x="180" y="20" width="120" height="80" as="geometry" />
        </mxCell>
        <mxCell id="Hqv3DFoAGl3mghlpKtBY-12" value="" style="endArrow=none;html=1;rounded=0;" parent="1" source="Hqv3DFoAGl3mghlpKtBY-11" target="Hqv3DFoAGl3mghlpKtBY-1" edge="1">
          <mxGeometry width="50" height="50" relative="1" as="geometry">
            <mxPoint x="710" y="310" as="sourcePoint" />
            <mxPoint x="190" y="80" as="targetPoint" />
          </mxGeometry>
        </mxCell>
        <mxCell id="Hqv3DFoAGl3mghlpKtBY-13" value="no_telp" style="ellipse;whiteSpace=wrap;html=1;" parent="1" vertex="1">
          <mxGeometry x="310" y="30" width="120" height="80" as="geometry" />
        </mxCell>
        <mxCell id="Hqv3DFoAGl3mghlpKtBY-14" value="" style="endArrow=none;html=1;rounded=0;" parent="1" source="Hqv3DFoAGl3mghlpKtBY-13" target="Hqv3DFoAGl3mghlpKtBY-1" edge="1">
          <mxGeometry width="50" height="50" relative="1" as="geometry">
            <mxPoint x="850" y="320" as="sourcePoint" />
            <mxPoint x="190" y="80" as="targetPoint" />
          </mxGeometry>
        </mxCell>
        <mxCell id="Hqv3DFoAGl3mghlpKtBY-19" value="Pesanan" style="rounded=0;whiteSpace=wrap;html=1;" parent="1" vertex="1">
          <mxGeometry x="420" y="370" width="120" height="60" as="geometry" />
        </mxCell>
        <mxCell id="Hqv3DFoAGl3mghlpKtBY-20" value="" style="endArrow=none;html=1;rounded=0;exitX=0.5;exitY=0;exitDx=0;exitDy=0;" parent="1" source="Hqv3DFoAGl3mghlpKtBY-21" target="Hqv3DFoAGl3mghlpKtBY-19" edge="1">
          <mxGeometry width="50" height="50" relative="1" as="geometry">
            <mxPoint x="240" y="240" as="sourcePoint" />
            <mxPoint x="620" y="310" as="targetPoint" />
          </mxGeometry>
        </mxCell>
        <mxCell id="Hqv3DFoAGl3mghlpKtBY-21" value="id_pesanan" style="ellipse;whiteSpace=wrap;html=1;" parent="1" vertex="1">
          <mxGeometry x="480" y="270" width="120" height="80" as="geometry" />
        </mxCell>
        <mxCell id="Hqv3DFoAGl3mghlpKtBY-22" value="tanggal_pesanan" style="ellipse;whiteSpace=wrap;html=1;" parent="1" vertex="1">
          <mxGeometry x="320" y="260" width="120" height="80" as="geometry" />
        </mxCell>
        <mxCell id="Hqv3DFoAGl3mghlpKtBY-23" value="" style="endArrow=none;html=1;rounded=0;" parent="1" source="Hqv3DFoAGl3mghlpKtBY-22" target="Hqv3DFoAGl3mghlpKtBY-19" edge="1">
          <mxGeometry width="50" height="50" relative="1" as="geometry">
            <mxPoint x="290" y="220" as="sourcePoint" />
            <mxPoint x="240" y="180" as="targetPoint" />
          </mxGeometry>
        </mxCell>
        <mxCell id="Hqv3DFoAGl3mghlpKtBY-24" value="total_bayar" style="ellipse;whiteSpace=wrap;html=1;" parent="1" vertex="1">
          <mxGeometry x="600" y="330" width="120" height="80" as="geometry" />
        </mxCell>
        <mxCell id="Hqv3DFoAGl3mghlpKtBY-25" value="" style="endArrow=none;html=1;rounded=0;" parent="1" source="Hqv3DFoAGl3mghlpKtBY-24" target="Hqv3DFoAGl3mghlpKtBY-19" edge="1">
          <mxGeometry width="50" height="50" relative="1" as="geometry">
            <mxPoint x="710" y="360" as="sourcePoint" />
            <mxPoint x="190" y="130" as="targetPoint" />
          </mxGeometry>
        </mxCell>
        <mxCell id="Hqv3DFoAGl3mghlpKtBY-28" value="Produk" style="rounded=0;whiteSpace=wrap;html=1;" parent="1" vertex="1">
          <mxGeometry x="300" y="580" width="120" height="60" as="geometry" />
        </mxCell>
        <mxCell id="Hqv3DFoAGl3mghlpKtBY-29" value="" style="endArrow=none;html=1;rounded=0;" parent="1" source="Hqv3DFoAGl3mghlpKtBY-30" target="Hqv3DFoAGl3mghlpKtBY-28" edge="1">
          <mxGeometry width="50" height="50" relative="1" as="geometry">
            <mxPoint x="790" y="300" as="sourcePoint" />
            <mxPoint x="1170" y="370" as="targetPoint" />
          </mxGeometry>
        </mxCell>
        <mxCell id="Hqv3DFoAGl3mghlpKtBY-30" value="id_produk" style="ellipse;whiteSpace=wrap;html=1;" parent="1" vertex="1">
          <mxGeometry x="110" y="505" width="120" height="80" as="geometry" />
        </mxCell>
        <mxCell id="Hqv3DFoAGl3mghlpKtBY-31" value="nama_produk" style="ellipse;whiteSpace=wrap;html=1;" parent="1" vertex="1">
          <mxGeometry x="100" y="610" width="120" height="80" as="geometry" />
        </mxCell>
        <mxCell id="Hqv3DFoAGl3mghlpKtBY-32" value="" style="endArrow=none;html=1;rounded=0;" parent="1" source="Hqv3DFoAGl3mghlpKtBY-31" target="Hqv3DFoAGl3mghlpKtBY-28" edge="1">
          <mxGeometry width="50" height="50" relative="1" as="geometry">
            <mxPoint x="1120" y="420" as="sourcePoint" />
            <mxPoint x="790" y="240" as="targetPoint" />
          </mxGeometry>
        </mxCell>
        <mxCell id="Hqv3DFoAGl3mghlpKtBY-33" value="stok" style="ellipse;whiteSpace=wrap;html=1;" parent="1" vertex="1">
          <mxGeometry x="160" y="700" width="120" height="80" as="geometry" />
        </mxCell>
        <mxCell id="Hqv3DFoAGl3mghlpKtBY-34" value="" style="endArrow=none;html=1;rounded=0;" parent="1" source="Hqv3DFoAGl3mghlpKtBY-33" target="Hqv3DFoAGl3mghlpKtBY-28" edge="1">
          <mxGeometry width="50" height="50" relative="1" as="geometry">
            <mxPoint x="1260" y="420" as="sourcePoint" />
            <mxPoint x="740" y="190" as="targetPoint" />
          </mxGeometry>
        </mxCell>
        <mxCell id="Hqv3DFoAGl3mghlpKtBY-35" value="harga" style="ellipse;whiteSpace=wrap;html=1;" parent="1" vertex="1">
          <mxGeometry x="340" y="700" width="120" height="80" as="geometry" />
        </mxCell>
        <mxCell id="Hqv3DFoAGl3mghlpKtBY-36" value="" style="endArrow=none;html=1;rounded=0;" parent="1" source="Hqv3DFoAGl3mghlpKtBY-35" target="Hqv3DFoAGl3mghlpKtBY-28" edge="1">
          <mxGeometry width="50" height="50" relative="1" as="geometry">
            <mxPoint x="1400" y="430" as="sourcePoint" />
            <mxPoint x="740" y="190" as="targetPoint" />
          </mxGeometry>
        </mxCell>
        <mxCell id="Hqv3DFoAGl3mghlpKtBY-37" value="Tagihan" style="rounded=0;whiteSpace=wrap;html=1;" parent="1" vertex="1">
          <mxGeometry x="790" y="490" width="120" height="60" as="geometry" />
        </mxCell>
        <mxCell id="Hqv3DFoAGl3mghlpKtBY-38" value="" style="endArrow=none;html=1;rounded=0;" parent="1" source="Hqv3DFoAGl3mghlpKtBY-39" target="Hqv3DFoAGl3mghlpKtBY-37" edge="1">
          <mxGeometry width="50" height="50" relative="1" as="geometry">
            <mxPoint x="890" y="530" as="sourcePoint" />
            <mxPoint x="1270" y="600" as="targetPoint" />
          </mxGeometry>
        </mxCell>
        <mxCell id="Hqv3DFoAGl3mghlpKtBY-39" value="id_tagihan" style="ellipse;whiteSpace=wrap;html=1;" parent="1" vertex="1">
          <mxGeometry x="610" y="630" width="120" height="80" as="geometry" />
        </mxCell>
        <mxCell id="Hqv3DFoAGl3mghlpKtBY-40" value="tanggal_tagihan" style="ellipse;whiteSpace=wrap;html=1;" parent="1" vertex="1">
          <mxGeometry x="760" y="640" width="120" height="80" as="geometry" />
        </mxCell>
        <mxCell id="Hqv3DFoAGl3mghlpKtBY-41" value="" style="endArrow=none;html=1;rounded=0;" parent="1" source="Hqv3DFoAGl3mghlpKtBY-40" target="Hqv3DFoAGl3mghlpKtBY-37" edge="1">
          <mxGeometry width="50" height="50" relative="1" as="geometry">
            <mxPoint x="1220" y="650" as="sourcePoint" />
            <mxPoint x="890" y="470" as="targetPoint" />
          </mxGeometry>
        </mxCell>
        <mxCell id="Hqv3DFoAGl3mghlpKtBY-42" value="status" style="ellipse;whiteSpace=wrap;html=1;" parent="1" vertex="1">
          <mxGeometry x="900" y="630" width="120" height="80" as="geometry" />
        </mxCell>
        <mxCell id="Hqv3DFoAGl3mghlpKtBY-43" value="" style="endArrow=none;html=1;rounded=0;" parent="1" source="Hqv3DFoAGl3mghlpKtBY-42" target="Hqv3DFoAGl3mghlpKtBY-37" edge="1">
          <mxGeometry width="50" height="50" relative="1" as="geometry">
            <mxPoint x="1360" y="650" as="sourcePoint" />
            <mxPoint x="840" y="420" as="targetPoint" />
          </mxGeometry>
        </mxCell>
        <mxCell id="Hqv3DFoAGl3mghlpKtBY-44" value="batas waktu" style="ellipse;whiteSpace=wrap;html=1;" parent="1" vertex="1">
          <mxGeometry x="1010" y="585" width="120" height="80" as="geometry" />
        </mxCell>
        <mxCell id="Hqv3DFoAGl3mghlpKtBY-45" value="" style="endArrow=none;html=1;rounded=0;" parent="1" source="Hqv3DFoAGl3mghlpKtBY-44" target="Hqv3DFoAGl3mghlpKtBY-37" edge="1">
          <mxGeometry width="50" height="50" relative="1" as="geometry">
            <mxPoint x="1500" y="660" as="sourcePoint" />
            <mxPoint x="840" y="420" as="targetPoint" />
          </mxGeometry>
        </mxCell>
        <mxCell id="Hqv3DFoAGl3mghlpKtBY-46" value="Pembayaran" style="rounded=0;whiteSpace=wrap;html=1;" parent="1" vertex="1">
          <mxGeometry x="830" y="240" width="120" height="60" as="geometry" />
        </mxCell>
        <mxCell id="Hqv3DFoAGl3mghlpKtBY-47" value="" style="endArrow=none;html=1;rounded=0;" parent="1" source="Hqv3DFoAGl3mghlpKtBY-48" target="Hqv3DFoAGl3mghlpKtBY-46" edge="1">
          <mxGeometry width="50" height="50" relative="1" as="geometry">
            <mxPoint x="350" y="690" as="sourcePoint" />
            <mxPoint x="730" y="760" as="targetPoint" />
          </mxGeometry>
        </mxCell>
        <mxCell id="Hqv3DFoAGl3mghlpKtBY-48" value="id_pembayaran" style="ellipse;whiteSpace=wrap;html=1;" parent="1" vertex="1">
          <mxGeometry x="860" y="70" width="120" height="80" as="geometry" />
        </mxCell>
        <mxCell id="Hqv3DFoAGl3mghlpKtBY-49" value="metode" style="ellipse;whiteSpace=wrap;html=1;" parent="1" vertex="1">
          <mxGeometry x="1020" y="110" width="120" height="80" as="geometry" />
        </mxCell>
        <mxCell id="Hqv3DFoAGl3mghlpKtBY-50" value="" style="endArrow=none;html=1;rounded=0;" parent="1" source="Hqv3DFoAGl3mghlpKtBY-49" target="Hqv3DFoAGl3mghlpKtBY-46" edge="1">
          <mxGeometry width="50" height="50" relative="1" as="geometry">
            <mxPoint x="680" y="810" as="sourcePoint" />
            <mxPoint x="350" y="630" as="targetPoint" />
          </mxGeometry>
        </mxCell>
        <mxCell id="Hqv3DFoAGl3mghlpKtBY-51" value="jumlah" style="ellipse;whiteSpace=wrap;html=1;" parent="1" vertex="1">
          <mxGeometry x="1040" y="230" width="120" height="80" as="geometry" />
        </mxCell>
        <mxCell id="Hqv3DFoAGl3mghlpKtBY-52" value="" style="endArrow=none;html=1;rounded=0;" parent="1" source="Hqv3DFoAGl3mghlpKtBY-51" target="Hqv3DFoAGl3mghlpKtBY-46" edge="1">
          <mxGeometry width="50" height="50" relative="1" as="geometry">
            <mxPoint x="820" y="810" as="sourcePoint" />
            <mxPoint x="300" y="580" as="targetPoint" />
          </mxGeometry>
        </mxCell>
        <mxCell id="Hqv3DFoAGl3mghlpKtBY-53" value="tanggal_pembayaran" style="ellipse;whiteSpace=wrap;html=1;" parent="1" vertex="1">
          <mxGeometry x="1030" y="350" width="120" height="80" as="geometry" />
        </mxCell>
        <mxCell id="Hqv3DFoAGl3mghlpKtBY-54" value="" style="endArrow=none;html=1;rounded=0;" parent="1" source="Hqv3DFoAGl3mghlpKtBY-53" target="Hqv3DFoAGl3mghlpKtBY-46" edge="1">
          <mxGeometry width="50" height="50" relative="1" as="geometry">
            <mxPoint x="960" y="820" as="sourcePoint" />
            <mxPoint x="300" y="580" as="targetPoint" />
          </mxGeometry>
        </mxCell>
        <mxCell id="Hqv3DFoAGl3mghlpKtBY-55" value="Memesan" style="rhombus;whiteSpace=wrap;html=1;" parent="1" vertex="1">
          <mxGeometry x="200" y="350" width="110" height="110" as="geometry" />
        </mxCell>
        <mxCell id="Hqv3DFoAGl3mghlpKtBY-61" value="" style="endArrow=none;html=1;rounded=0;" parent="1" source="Hqv3DFoAGl3mghlpKtBY-55" target="Hqv3DFoAGl3mghlpKtBY-1" edge="1">
          <mxGeometry width="50" height="50" relative="1" as="geometry">
            <mxPoint x="325" y="260" as="sourcePoint" />
            <mxPoint x="375" y="210" as="targetPoint" />
          </mxGeometry>
        </mxCell>
        <mxCell id="YmJS5oTYy1IZEFrAScEQ-1" value="1" style="edgeLabel;html=1;align=center;verticalAlign=middle;resizable=0;points=[];" vertex="1" connectable="0" parent="Hqv3DFoAGl3mghlpKtBY-61">
          <mxGeometry x="0.2427" y="-1" relative="1" as="geometry">
            <mxPoint as="offset" />
          </mxGeometry>
        </mxCell>
        <mxCell id="Hqv3DFoAGl3mghlpKtBY-62" value="" style="endArrow=none;html=1;rounded=0;" parent="1" source="Hqv3DFoAGl3mghlpKtBY-55" target="Hqv3DFoAGl3mghlpKtBY-19" edge="1">
          <mxGeometry width="50" height="50" relative="1" as="geometry">
            <mxPoint x="317.35357142857157" y="379.99642857142857" as="sourcePoint" />
            <mxPoint x="230.00000000000006" y="309.55" as="targetPoint" />
          </mxGeometry>
        </mxCell>
        <mxCell id="YmJS5oTYy1IZEFrAScEQ-2" value="N" style="edgeLabel;html=1;align=center;verticalAlign=middle;resizable=0;points=[];" vertex="1" connectable="0" parent="Hqv3DFoAGl3mghlpKtBY-62">
          <mxGeometry x="-0.1342" y="-1" relative="1" as="geometry">
            <mxPoint as="offset" />
          </mxGeometry>
        </mxCell>
        <mxCell id="Hqv3DFoAGl3mghlpKtBY-63" value="Berisi" style="rhombus;whiteSpace=wrap;html=1;" parent="1" vertex="1">
          <mxGeometry x="440" y="475" width="110" height="110" as="geometry" />
        </mxCell>
        <mxCell id="Hqv3DFoAGl3mghlpKtBY-64" value="" style="endArrow=none;html=1;rounded=0;" parent="1" source="Hqv3DFoAGl3mghlpKtBY-63" target="Hqv3DFoAGl3mghlpKtBY-19" edge="1">
          <mxGeometry width="50" height="50" relative="1" as="geometry">
            <mxPoint x="565" y="400" as="sourcePoint" />
            <mxPoint x="517" y="340" as="targetPoint" />
          </mxGeometry>
        </mxCell>
        <mxCell id="YmJS5oTYy1IZEFrAScEQ-9" value="1" style="edgeLabel;html=1;align=center;verticalAlign=middle;resizable=0;points=[];" vertex="1" connectable="0" parent="Hqv3DFoAGl3mghlpKtBY-64">
          <mxGeometry x="0.03" relative="1" as="geometry">
            <mxPoint as="offset" />
          </mxGeometry>
        </mxCell>
        <mxCell id="Hqv3DFoAGl3mghlpKtBY-65" value="" style="endArrow=none;html=1;rounded=0;" parent="1" source="Hqv3DFoAGl3mghlpKtBY-63" target="Hqv3DFoAGl3mghlpKtBY-28" edge="1">
          <mxGeometry width="50" height="50" relative="1" as="geometry">
            <mxPoint x="557.3535714285715" y="519.9964285714286" as="sourcePoint" />
            <mxPoint x="556.5" y="530.0000000000001" as="targetPoint" />
          </mxGeometry>
        </mxCell>
        <mxCell id="YmJS5oTYy1IZEFrAScEQ-10" value="N" style="edgeLabel;html=1;align=center;verticalAlign=middle;resizable=0;points=[];" vertex="1" connectable="0" parent="Hqv3DFoAGl3mghlpKtBY-65">
          <mxGeometry x="-0.1194" relative="1" as="geometry">
            <mxPoint as="offset" />
          </mxGeometry>
        </mxCell>
        <mxCell id="Hqv3DFoAGl3mghlpKtBY-66" value="Mengeluarkan" style="rhombus;whiteSpace=wrap;html=1;" parent="1" vertex="1">
          <mxGeometry x="650.0000000000001" y="425" width="110" height="110" as="geometry" />
        </mxCell>
        <mxCell id="Hqv3DFoAGl3mghlpKtBY-67" value="" style="endArrow=none;html=1;rounded=0;" parent="1" source="Hqv3DFoAGl3mghlpKtBY-66" target="Hqv3DFoAGl3mghlpKtBY-37" edge="1">
          <mxGeometry width="50" height="50" relative="1" as="geometry">
            <mxPoint x="829.2735714285716" y="542.4964285714286" as="sourcePoint" />
            <mxPoint x="682.5450000000001" y="602.5" as="targetPoint" />
          </mxGeometry>
        </mxCell>
        <mxCell id="YmJS5oTYy1IZEFrAScEQ-8" value="1" style="edgeLabel;html=1;align=center;verticalAlign=middle;resizable=0;points=[];" vertex="1" connectable="0" parent="Hqv3DFoAGl3mghlpKtBY-67">
          <mxGeometry x="0.12" y="-1" relative="1" as="geometry">
            <mxPoint as="offset" />
          </mxGeometry>
        </mxCell>
        <mxCell id="Hqv3DFoAGl3mghlpKtBY-68" value="" style="endArrow=none;html=1;rounded=0;" parent="1" source="Hqv3DFoAGl3mghlpKtBY-66" target="Hqv3DFoAGl3mghlpKtBY-19" edge="1">
          <mxGeometry width="50" height="50" relative="1" as="geometry">
            <mxPoint x="836.9200000000001" y="422.5" as="sourcePoint" />
            <mxPoint x="839.9969230769232" y="452.5000000000001" as="targetPoint" />
          </mxGeometry>
        </mxCell>
        <mxCell id="YmJS5oTYy1IZEFrAScEQ-7" value="1" style="edgeLabel;html=1;align=center;verticalAlign=middle;resizable=0;points=[];" vertex="1" connectable="0" parent="Hqv3DFoAGl3mghlpKtBY-68">
          <mxGeometry x="-0.1542" relative="1" as="geometry">
            <mxPoint as="offset" />
          </mxGeometry>
        </mxCell>
        <mxCell id="Hqv3DFoAGl3mghlpKtBY-69" value="" style="endArrow=none;html=1;rounded=0;" parent="1" source="Hqv3DFoAGl3mghlpKtBY-70" target="Hqv3DFoAGl3mghlpKtBY-37" edge="1">
          <mxGeometry width="50" height="50" relative="1" as="geometry">
            <mxPoint x="1013.8000000000001" y="332.5" as="sourcePoint" />
            <mxPoint x="810.005" y="340.0000000000001" as="targetPoint" />
          </mxGeometry>
        </mxCell>
        <mxCell id="YmJS5oTYy1IZEFrAScEQ-5" value="1" style="edgeLabel;html=1;align=center;verticalAlign=middle;resizable=0;points=[];" vertex="1" connectable="0" parent="Hqv3DFoAGl3mghlpKtBY-69">
          <mxGeometry x="-0.2155" y="-1" relative="1" as="geometry">
            <mxPoint as="offset" />
          </mxGeometry>
        </mxCell>
        <mxCell id="Hqv3DFoAGl3mghlpKtBY-70" value="Mengonfirmasi" style="rhombus;whiteSpace=wrap;html=1;" parent="1" vertex="1">
          <mxGeometry x="826.8800000000001" y="335" width="110" height="110" as="geometry" />
        </mxCell>
        <mxCell id="Hqv3DFoAGl3mghlpKtBY-71" value="" style="endArrow=none;html=1;rounded=0;" parent="1" source="Hqv3DFoAGl3mghlpKtBY-70" target="Hqv3DFoAGl3mghlpKtBY-46" edge="1">
          <mxGeometry width="50" height="50" relative="1" as="geometry">
            <mxPoint x="1006.1535714285716" y="452.4964285714286" as="sourcePoint" />
            <mxPoint x="966.88" y="413.44827586206907" as="targetPoint" />
          </mxGeometry>
        </mxCell>
        <mxCell id="YmJS5oTYy1IZEFrAScEQ-6" value="1" style="edgeLabel;html=1;align=center;verticalAlign=middle;resizable=0;points=[];" vertex="1" connectable="0" parent="Hqv3DFoAGl3mghlpKtBY-71">
          <mxGeometry x="0.2689" y="1" relative="1" as="geometry">
            <mxPoint as="offset" />
          </mxGeometry>
        </mxCell>
        <mxCell id="Hqv3DFoAGl3mghlpKtBY-72" value="" style="endArrow=none;html=1;rounded=0;" parent="1" source="Hqv3DFoAGl3mghlpKtBY-73" target="Hqv3DFoAGl3mghlpKtBY-1" edge="1">
          <mxGeometry width="50" height="50" relative="1" as="geometry">
            <mxPoint x="763.7735714285716" y="252.49642857142862" as="sourcePoint" />
            <mxPoint x="645.5900000000003" y="100" as="targetPoint" />
          </mxGeometry>
        </mxCell>
        <mxCell id="YmJS5oTYy1IZEFrAScEQ-3" value="1" style="edgeLabel;html=1;align=center;verticalAlign=middle;resizable=0;points=[];" vertex="1" connectable="0" parent="Hqv3DFoAGl3mghlpKtBY-72">
          <mxGeometry x="-0.0712" relative="1" as="geometry">
            <mxPoint as="offset" />
          </mxGeometry>
        </mxCell>
        <mxCell id="Hqv3DFoAGl3mghlpKtBY-73" value="Melakukan" style="rhombus;whiteSpace=wrap;html=1;" parent="1" vertex="1">
          <mxGeometry x="560.0000000000001" y="140" width="110" height="110" as="geometry" />
        </mxCell>
        <mxCell id="Hqv3DFoAGl3mghlpKtBY-74" value="" style="endArrow=none;html=1;rounded=0;" parent="1" source="Hqv3DFoAGl3mghlpKtBY-73" target="Hqv3DFoAGl3mghlpKtBY-46" edge="1">
          <mxGeometry width="50" height="50" relative="1" as="geometry">
            <mxPoint x="771.4200000000001" y="132.5" as="sourcePoint" />
            <mxPoint x="614.9769230769231" y="290" as="targetPoint" />
          </mxGeometry>
        </mxCell>
        <mxCell id="YmJS5oTYy1IZEFrAScEQ-4" value="N" style="edgeLabel;html=1;align=center;verticalAlign=middle;resizable=0;points=[];" vertex="1" connectable="0" parent="Hqv3DFoAGl3mghlpKtBY-74">
          <mxGeometry x="-0.1324" y="-1" relative="1" as="geometry">
            <mxPoint as="offset" />
          </mxGeometry>
        </mxCell>
      </root>
    </mxGraphModel>
  </diagram>
</mxfile>
